<?xml version="1.0" encoding="UTF-8"?>
<svg id="_图层_1" data-name="图层 1" xmlns="http://www.w3.org/2000/svg" viewBox="0 0 32 32">
  <defs>
    <style>
      .cls-1 {
        fill: #fff;
      }

      .cls-2 {
        fill: #7ecde9;
      }
    </style>
  </defs>
  <g>
    <path class="cls-2" d="m8.77,9.05c.2-.2.3-.3.52-.48-2.03,2.49-2.7,4.42-2.49,8.01-.37,0-.55,0-.92,0-.17-3.4.6-5.24,2.9-7.54Z"/>
    <path class="cls-2" d="m9.63,8.28c.63-.5.97-.72,1.69-1.08-.24.61-.35.93-.55,1.6-1.11,2.16-1.69,3.35-2.48,5.67.67-.07,1.01-.1,1.7-.16-.03.88-.01,1.35.04,2.24-1.13,0-1.69.01-2.82.02-.05-.76-.05-1.16.01-1.92.82-2.19,1.43-3.32,2.63-5.4-.46.19-.69.3-1.13.52.32-.63.51-.93.91-1.49Z"/>
    <path class="cls-2" d="m12.22,14.71c-.42.02-.63.03-1.05.05-.06.71-.07,1.08-.09,1.79-.37,0-.56,0-.94,0,.2-4.16.84-6.45,2.09-9.76.29-.11.44-.16.74-.25-.37,3.19-.21,5.52.4,9.99-.38,0-.58,0-.96,0-.09-.73-.14-1.1-.2-1.83Zm-.14-2.31c-.05-1.49-.04-2.2.06-3.5-.33,1.35-.48,2.07-.7,3.56.25-.03.38-.04.64-.07Z"/>
    <path class="cls-2" d="m14.08,6.28c.29-.05.44-.07.73-.1-.09,1.3-.13,2.01-.18,3.54.42-1.54.63-2.28.97-3.59.4,0,.61,0,1,.03-.29,1.27-.5,1.99-.92,3.52.42,2.52.71,4.01,1.14,6.83-.45,0-.68,0-1.13,0-.26-1.87-.41-2.85-.64-4.61-.2.73-.29,1.1-.49,1.85,0,1.09,0,1.67.03,2.77-.37,0-.55,0-.92,0-.14-4.49-.02-6.86.4-10.25Z"/>
    <path class="cls-2" d="m18.98,14.65c-.42-.01-.63-.02-1.05-.02-.06.74-.09,1.12-.16,1.86-.37,0-.56,0-.94,0,.48-4.54.74-6.91.71-10.23.32.06.47.09.78.17.92,3.4,1.47,5.73,1.74,10.04-.38,0-.58,0-.96,0-.04-.73-.06-1.1-.12-1.83Zm-.24-2.35c-.19-1.53-.31-2.27-.55-3.64,0,1.34-.01,2.07-.1,3.6.26.01.39.02.65.04Z"/>
    <path class="cls-2" d="m18.9,6.61c.31.1.46.15.75.28.5,1.13.75,1.74,1.2,3-.04-1.16-.11-1.69-.36-2.61.28.15.41.23.68.39.56,1.44.63,2.4.47,4.57.2,1.61.23,2.51.14,4.22-.37,0-.55,0-.92,0,.08-1.77.06-2.69-.1-4.35-.66-2.36-1.09-3.51-1.86-5.51Z"/>
    <path class="cls-2" d="m24.66,14.95c-.41-.03-.61-.05-1.02-.07-.03.62-.07.95-.16,1.58-.37,0-.56,0-.94,0,.65-3.98.48-5.99-.91-8.47.25.18.37.27.61.47,2.2,2.71,3.2,4.62,3.53,7.97-.38,0-.58,0-.96,0-.03-.59-.06-.9-.16-1.49Zm-.45-1.92c-.38-1.25-.64-1.86-1.24-2.99.4,1.04.53,1.63.64,2.88.24.04.36.07.6.11Z"/>
  </g>
  <g>
    <path class="cls-1" d="m5.88,16.58c1.98-.01,2.96-.02,4.94-.04-.01.97,0,1.45.05,2.38-.65-.05-.97-.07-1.61-.13.25,2.66.6,3.9,1.53,5.9-.43-.25-.64-.4-1.04-.7-1.21-1.79-1.67-2.93-2.05-5.37-.63-.07-.94-.11-1.56-.2-.17-.72-.23-1.09-.26-1.85Z"/>
    <path class="cls-1" d="m11.62,16.54c.65,0,.98,0,1.63-.01-.05,4.18.09,6.19.5,9.32-.51-.11-.76-.18-1.24-.35-.72-2.99-.96-4.93-.9-8.96Z"/>
    <path class="cls-1" d="m14.39,16.52c.85,0,1.28,0,2.14-.02.36,2.6.54,3.85.75,6.09.4-2.28.62-3.54.89-6.1.85,0,1.28,0,2.14-.02.1,4.03-.16,5.97-.96,8.95-.39.15-.59.21-1,.32.42-2.36.57-3.8.63-6.83-.47,3.06-.83,4.54-1.43,7.01-.38.07-.57.09-.96.12-.21-2.42-.43-3.91-.85-7.03,0,3.13.01,4.61.01,7.06-.44,0-.66-.02-1.08-.07-.22-3.19-.29-5.23-.27-9.48Z"/>
    <path class="cls-1" d="m21.34,16.47c1.74-.01,2.61-.02,4.35-.03-.02.67-.06,1.01-.19,1.65-1.03.13-1.55.19-2.61.29-.05.56-.08.83-.17,1.37.94-.16,1.4-.25,2.3-.46-.18.59-.3.88-.56,1.43-.81.31-1.23.45-2.1.7-.17.62-.26.93-.48,1.5.86-.36,1.28-.58,2.05-1.05-.39.54-.6.8-1.07,1.27-.96.96-1.53,1.37-2.78,1.96,1.01-2.85,1.35-4.73,1.26-8.64Z"/>
  </g>
  <g>
    <path class="cls-1" d="m16.37,4.6v-.15s.15,0,.15,0v-.15s.02-.15.02-.15v-.15s.02-.15.02-.15v-.15s.02-.15.02-.15v-.15s.02-.15.02-.15h-.15s0-.15,0-.15h.15s.15.02.15.02h.15s.15.02.15.02v.15s-.15,0-.15,0v.15s-.02.15-.02.15v.15s-.02.15-.02.15v.15s-.02.15-.02.15v.15s-.02.15-.02.15h.15s0,.15,0,.15h-.15s-.15-.02-.15-.02h-.15s-.15-.02-.15-.02Z"/>
    <path class="cls-1" d="m17.36,4.67l-.14-.02.02-.14.02-.14.02-.14.14.02.02-.14.14.02.02-.14.14.02.02-.14.14.02.02-.14.14.02.02-.14.02-.14-.14-.02-.14-.02-.14-.02-.02.14-.14-.02-.02.14-.14-.02.02-.14.02-.14.02-.14.14.02.14.02.14.02.14.02.14.02.14.02.14.02-.02.14-.02.14-.02.14-.14-.02-.02.14-.14-.02-.02.14-.14-.02-.02.14-.14-.02-.02.14-.14-.02-.02.14-.02.14.14.02.14.02.14.02.02-.14.14.02.02-.14.14.02-.02.14-.02.14-.02.14-.14-.02-.14-.02-.14-.02-.14-.02-.14-.02-.14-.02Z"/>
    <path class="cls-1" d="m18.49,4.86l-.14-.04.04-.14.04-.14.04-.14.04-.14.04-.14.04-.14.04-.14.14.04.04-.14.14.04.04-.14.14.04.04-.14.14.04-.04.14.14.04-.04.14.14.04-.04.14.14.04-.04.14-.04.14-.04.14-.04.14-.04.14-.04.14-.04.14-.14-.04-.14-.04.04-.14.04-.14.04-.14.04-.14-.14-.04-.14-.04-.14-.04-.04.14-.04.14-.04.14-.04.14-.14-.04Zm.47-.63l.14.04.14.04.04-.14.04-.14-.14-.04.04-.14-.14-.04-.04.14-.14-.04-.04.14-.04.14.14.04Z"/>
    <path class="cls-1" d="m19.45,5.12l.05-.14.14.05.05-.14.05-.14.05-.14.05-.14.05-.14.05-.14.05-.14.05-.14-.14-.05.05-.14.14.05.14.05.14.05-.05.14-.05.14-.05.14-.05.14.14.05.05-.14.14.05.05-.14.05-.14.05-.14.14.05.14.05-.05.14-.05.14-.05.14-.14-.05-.05.14-.14-.05-.05.14-.05.14.14.05-.05.14.14.05-.05.14-.05.14-.05.14-.14-.05-.14-.05.05-.14.05-.14.05-.14-.14-.05.05-.14-.14-.05-.05.14-.05.14-.05.14-.05.14-.14-.05-.14-.05-.14-.05Z"/>
    <path class="cls-1" d="m20.65,5.58l-.13-.06.06-.13.06-.13.06-.13.06-.13.06-.13.06-.13.06-.13.13.06.06-.13.13.06.06-.13.13.06.06-.13.13.06-.06.13.13.06-.06.13.13.06-.06.13.13.06-.06.13-.06.13-.06.13-.06.13-.06.13-.06.13-.06.13-.13-.06-.13-.06.06-.13.06-.13.06-.13.06-.13-.13-.06-.13-.06-.13-.06-.06.13-.06.13-.06.13-.06.13-.13-.06Zm.59-.52l.13.06.13.06.06-.13.06-.13-.13-.06.06-.13-.13-.06-.06.13-.13-.06-.06.13-.06.13.13.06Z"/>
    <path class="cls-1" d="m21.79,6.18l.08-.12.12.08.08-.12.08-.12.08-.12.08-.12-.12-.08.08-.12-.12-.08.08-.12.08-.12.08-.12.08-.12.12.08.12.08-.08.12-.08.12-.08.12-.08.12.12.08.12.08.08-.12.08-.12.08-.12.08-.12.12.08.12.08-.08.12-.08.12-.08.12-.08.12-.12-.08-.08.12-.12-.08-.08.12-.08.12-.08.12-.08.12.12.08-.08.12-.12-.08-.12-.08-.12-.08-.12-.08Z"/>
    <path class="cls-1" d="m22.62,6.72l-.12-.09.09-.12.09-.12.09-.12.09-.12.09-.12.09-.12.09-.12.12.09.09-.12.12.09.09-.12.12.09.09-.12.12.09-.09.12.12.09-.09.12.12.09-.09.12.12.09-.09.12-.09.12-.09.12-.09.12-.09.12-.09.12-.09.12-.12-.09-.12-.09.09-.12.09-.12.09-.12.09-.12-.12-.09-.12-.09-.12-.09-.09.12-.09.12-.09.12-.09.12-.12-.09Zm.68-.4l.12.09.12.09.09-.12.09-.12-.12-.09.09-.12-.12-.09-.09.12-.12-.09-.09.12-.09.12.12.09Z"/>
    <path class="cls-1" d="m24.42,8.34l.11-.1.1.11.11-.1.11-.1.11-.1.11-.1.11-.1.11-.1.11-.1-.1-.11-.11.1-.1-.11.11-.1.11-.1.11-.1.1.11.1.11.1.11.1.11.1.11.1.11-.11.1-.11.1-.11.1-.1-.11.11-.1-.1-.11-.11.1-.11.1-.11.1-.11.1-.11.1-.11.1-.11.1.1.11-.11.1-.1-.11-.1-.11-.1-.11-.1-.11Z"/>
    <path class="cls-1" d="m25.15,9.22l.12-.08.08.12.12-.08.12-.08.12-.08.12-.08.12-.08.12-.08.12-.08.12-.08-.08-.12.12-.08.08.12.08.12.08.12.08.12-.12.08-.08-.12-.12.08-.12.08-.12.08-.12.08-.12.08-.12.08-.12.08-.12.08.08.12-.12.08-.08-.12-.08-.12-.08-.12-.08-.12Z"/>
    <path class="cls-1" d="m25.71,10.04l-.07-.13.13-.07.13-.07.13-.07.13-.07.13-.07.13-.07.13-.07.13-.07.13-.07.13-.07.07.13.07.13-.13.07.07.13-.13.07.07.13.13-.07.07.13.13-.07.07.13.07.13-.13.07-.13.07-.13.07-.13.07-.13.07-.13.07-.13.07-.13.07-.13.07-.13.07-.07-.13-.07-.13.13-.07.13-.07.13-.07.13-.07.13-.07.13-.07-.07-.13-.13.07-.07-.13.13-.07-.07-.13-.13.07-.13.07-.13.07-.13.07-.13.07-.13.07-.07-.13Z"/>
    <path class="cls-1" d="m26.19,10.91l.13-.06.06.13.13-.06.13-.06.13-.06.13-.06.13-.06.13-.06.13-.06.13-.06-.06-.13.13-.06.06.13.06.13.06.13.06.13.06.13.06.13.06.13-.13.06-.13.06-.13.06-.06-.13.13-.06-.06-.13.13-.06-.06-.13-.06-.13-.13.06-.13.06-.13.06.06.13.13-.06.06.13-.13.06-.13.06-.13.06-.06-.13.13-.06-.06-.13-.13.06-.13.06-.13.06-.13.06.06.13.06.13.13-.06.06.13.13-.06.06.13-.13.06-.13.06-.13.06-.06-.13-.06-.13-.06-.13-.06-.13-.06-.13-.06-.13-.06-.13Z"/>
    <path class="cls-1" d="m27.21,11.78l.14-.04.04.14.04.14.04.14.04.14.04.14.04.14.04.14-.14.04-.04-.14-.04-.14-.04-.14-.04-.14-.04-.14-.04-.14-.04-.14Z"/>
    <path class="cls-1" d="m27,13.04l.14-.03.03.14.14-.03.14-.03.14-.03.14-.03.14-.03.14-.03.14-.03.14-.03-.03-.14.14-.03.03.14.03.14.03.14.03.14.03.14.03.14.03.14-.14.03-.14.03-.14.03-.03-.14.14-.03-.03-.14.14-.03-.03-.14-.03-.14-.14.03-.14.03-.14.03.03.14.14-.03.03.14-.14.03-.14.03-.14.03-.03-.14.14-.03-.03-.14-.14.03-.14.03-.14.03-.14.03.03.14.03.14.14-.03.03.14.14-.03.03.14-.14.03-.14.03-.14.03-.03-.14-.03-.14-.03-.14-.03-.14-.03-.14-.03-.14-.03-.14Z"/>
    <path class="cls-1" d="m27.26,14.3l-.02-.14.14-.02.14-.02.14-.02.14-.02.14-.02.14-.02.14-.02.14-.02.14-.02.14-.02.02.14.02.14-.14.02.02.14-.14.02.02.14-.14.02.02.14.14-.02.14-.02.14-.02.02.14.02.14-.14.02-.14.02-.14.02-.14.02-.14.02-.14.02-.14.02-.14.02-.14.02-.14.02-.02-.14-.02-.14.14-.02.14-.02.14-.02.14-.02-.02-.14.14-.02-.02-.14.14-.02-.02-.14-.14.02-.14.02-.14.02-.14.02-.14.02-.14.02-.02-.14Z"/>
    <path class="cls-1" d="m27.37,15.58h.15s0,.14,0,.14h.15s.15,0,.15,0h.15s.15,0,.15,0h.15s.15,0,.15,0h.15s0-.15,0-.15h-.15s0-.14,0-.14h.15s.15,0,.15,0h.15s0,.14,0,.14v.15s0,.15,0,.15v.15s0,.15,0,.15v.15s-.14,0-.14,0h-.15s-.15,0-.15,0v-.15s.14,0,.14,0v-.15s-.15,0-.15,0h-.15s-.15,0-.15,0h-.15s-.15,0-.15,0h-.15s-.15,0-.15,0v.15s-.14,0-.14,0v-.15s0-.15,0-.15v-.15s0-.15,0-.15Z"/>
    <path class="cls-1" d="m27.38,16.43h.15s-.01.16-.01.16h.15s.15.03.15.03h.15s.15.03.15.03h.15s.15.03.15.03h.15s.15.03.15.03v-.15s.16.01.16.01v.15s-.03.15-.03.15v.15s-.03.15-.03.15v.15s-.03.15-.03.15h-.15s-.01.13-.01.13h-.15s-.15-.03-.15-.03h-.15s.01-.16.01-.16h-.15s-.15-.03-.15-.03v.15s-.16-.01-.16-.01h-.15s-.15-.03-.15-.03h-.15s.01-.16.01-.16v-.15s.16.01.16.01h.15s.15.03.15.03h.15s.01-.13.01-.13h.15s.01-.13.01-.13h-.15s-.15-.03-.15-.03h-.15s-.15-.03-.15-.03h-.15s.01-.16.01-.16v-.15s.03-.15.03-.15Zm.82.66v.15s.13.01.13.01h.15s.15.03.15.03v-.15s.03-.15.03-.15h-.15s-.15-.03-.15-.03h-.15s-.01.13-.01.13Z"/>
    <path class="cls-1" d="m27.22,17.85l.14.03-.03.14.14.03.14.03.14.03.14.03.03-.14.14.03.03-.14.14.03.14.03.14.03.14.03-.03.14-.03.14-.14-.03-.14-.03-.14-.03-.14-.03-.03.14-.03.14.14.03.14.03.14.03.14.03-.03.14-.03.14-.14-.03-.14-.03-.14-.03-.14-.03.03-.14-.14-.03.03-.14-.14-.03-.14-.03-.14-.03-.14-.03-.03.14-.14-.03.03-.14.03-.14.03-.14.03-.14Z"/>
    <path class="cls-1" d="m26.63,20.05l.06-.13.13.06.06-.13.13.06.13.06.13.06.13.06.13.06.13.06.13.06-.06.13.13.06-.06.13.13.06-.06.13-.06.13-.06.13-.13-.06.06-.13.06-.13-.13-.06.06-.13-.13-.06-.13-.06-.06.13-.06.13-.06.13-.06.13-.13-.06-.06.13-.13-.06-.13-.06-.13-.06-.13-.06.06-.13-.13-.06.06-.13.06-.13.06-.13.06-.13Zm.08.19l-.06.13-.06.13.13.06.13.06.13.06.13.06.06-.13.06-.13.06-.13-.13-.06-.13-.06-.13-.06-.13-.06-.06.13Z"/>
    <path class="cls-1" d="m26.82,21.11l.13.07-.07.13-.07.13-.07.13-.07.13-.07.13-.07.13-.07.13-.13-.07.07-.13.07-.13.07-.13.07-.13.07-.13.07-.13.07-.13Z"/>
    <path class="cls-1" d="m25.61,22.09l.12.08-.08.12.12.08.12.08.12.08.12.08.12.08.12.08.12.08.12.08.08-.12.12.08-.08.12-.08.12-.08.12-.08.12-.12-.08.08-.12-.12-.08-.12-.08-.12-.08-.12-.08-.12-.08-.12-.08-.12-.08-.12-.08-.08.12-.12-.08.08-.12.08-.12.08-.12.08-.12Z"/>
    <path class="cls-1" d="m25.05,22.91l.09-.11.11.09.11.09.11.09-.09.11.11.09-.09.11.11.09-.09.11.11.09-.09.11.11.09-.09.11.11.09.11.09.09-.11.09-.11.09-.11-.11-.09.09-.11-.11-.09.09-.11.11.09.11.09.11.09-.09.11-.09.11-.09.11-.09.11-.09.11-.09.11-.09.11-.11-.09-.11-.09-.11-.09.09-.11-.11-.09.09-.11-.11-.09.09-.11-.11-.09.09-.11-.11-.09.09-.11-.11-.09-.11-.09-.09.11-.09.11-.09.11.11.09-.09.11.11.09-.09.11-.11-.09-.11-.09-.11-.09.09-.11.09-.11.09-.11.09-.11.09-.11.09-.11Z"/>
    <path class="cls-1" d="m24.31,23.78l.1-.1.1.1.1.1.1.1.1.1.1.1.1.1.1.1-.1.1.1.1-.1.1.1.1-.1.1.1.1-.1.1-.1-.1-.1.1-.1-.1-.1.1-.1-.1-.1.1-.1-.1-.1-.1-.1-.1-.1-.1-.1-.1-.1-.1-.1-.1.1-.1.1-.1.1.1.1.1.1.1.1.1.1-.1.1-.1.1-.1-.1-.1-.1-.1-.1-.1-.1-.1.1-.1Zm.31.72l-.1.1-.1.1.1.1.1.1.1-.1.1.1.1-.1-.1-.1.1-.1-.1-.1-.1-.1-.1.1Z"/>
    <path class="cls-1" d="m23.61,24.48l.09.11-.11.09.09.11.09.11.09.11.09.11.09.11.09.11.09.11.09.11.11-.09.09.11-.11.09-.11.09-.11.09-.09-.11-.09-.11-.09-.11-.09-.11-.11.09.09.11-.11.09.09.11.09.11.09.11-.11.09-.11.09-.09-.11-.09-.11-.09-.11.11-.09-.09-.11.11-.09-.09-.11-.09-.11-.11.09-.09-.11-.11.09-.09-.11-.09-.11-.09-.11.11-.09.11-.09.09.11.09.11.09.11.11-.09.09.11.11-.09-.09-.11-.09-.11-.09-.11-.09-.11.11-.09.11-.09.11-.09Z"/>
    <path class="cls-1" d="m22.6,25.28l.12-.08.08.12.08.12.08.12.08.12.08.12.08.12.08.12-.12.08.08.12-.12.08.08.12-.12.08.08.12-.12.08-.08-.12-.12.08-.08-.12-.12.08-.08-.12-.12.08-.08-.12-.08-.12-.08-.12-.08-.12-.08-.12-.08-.12-.08-.12.12-.08.12-.08.08.12.08.12.08.12.08.12.12-.08.12-.08.12-.08-.08-.12-.08-.12-.08-.12-.08-.12.12-.08Zm.16.77l-.12.08-.12.08.08.12.08.12.12-.08.08.12.12-.08-.08-.12.12-.08-.08-.12-.08-.12-.12.08Z"/>
    <path class="cls-1" d="m21.51,25.96l.07.13-.13.07.07.13.07.13.07.13.07.13.13-.07.07.13.13-.07.07.13.07.13.07.13.07.13-.13.07-.13.07-.07-.13-.07-.13-.07-.13-.07-.13-.13.07-.13.07.07.13.07.13.07.13.07.13-.13.07-.13.07-.07-.13-.07-.13-.07-.13-.07-.13.13-.07-.07-.13.13-.07-.07-.13-.07-.13-.07-.13-.07-.13-.13.07-.07-.13.13-.07.13-.07.13-.07.13-.07Z"/>
    <path class="cls-1" d="m20.62,26.41l.14-.05.05.14.05.14.05.14.05.14.05.14.05.14.05.14-.14.05.05.14-.14.05.05.14-.14.05.05.14-.14.05-.05-.14-.14.05-.05-.14-.14.05-.05-.14-.14.05-.05-.14-.05-.14-.05-.14-.05-.14-.05-.14-.05-.14-.05-.14.14-.05.14-.05.05.14.05.14.05.14.05.14.14-.05.14-.05.14-.05-.05-.14-.05-.14-.05-.14-.05-.14.14-.05Zm0,.79l-.14.05-.14.05.05.14.05.14.14-.05.05.14.14-.05-.05-.14.14-.05-.05-.14-.05-.14-.14.05Z"/>
    <path class="cls-1" d="m18.32,27.16l.03.14-.14.03.03.14.03.14.03.14.03.14.03.14.03.14.03.14.14-.03-.03-.14.14-.03.03.14.03.14.03.14-.14.03-.14.03-.14.03-.14.03-.14.03-.14.03-.03-.14-.03-.14-.03-.14.14-.03.03.14.14-.03-.03-.14-.03-.14-.03-.14-.03-.14-.03-.14-.03-.14-.03-.14-.14.03-.03-.14.14-.03.14-.03.14-.03.14-.03Z"/>
    <path class="cls-1" d="m17.19,27.33v.15s-.13.01-.13.01v.15s.02.15.02.15v.15s.02.15.02.15v.15s.02.15.02.15v.15s.02.15.02.15h.15s.01.13.01.13h-.15s-.15.02-.15.02h-.15s-.15.02-.15.02v-.15s.13-.01.13-.01v-.15s-.02-.15-.02-.15v-.15s-.02-.15-.02-.15v-.15s-.02-.15-.02-.15v-.15s-.02-.15-.02-.15h-.15s-.01-.13-.01-.13h.15s.15-.02.15-.02h.15s.15-.02.15-.02Z"/>
    <path class="cls-1" d="m16.2,27.4h.15s0,.15,0,.15v.15s0,.15,0,.15v.15s0,.15,0,.15v.15s0,.15,0,.15v.15s0,.15,0,.15v.15s-.15,0-.15,0h-.15s0-.15,0-.15h-.15s0-.15,0-.15h-.15s0,.14,0,.14h-.15s0,.14,0,.14h-.15s-.15,0-.15,0v-.15s0-.15,0-.15v-.15s0-.15,0-.15v-.15s0-.15,0-.15v-.15s0-.15,0-.15v-.15s0-.15,0-.15h.15s.15,0,.15,0v.15s0,.15,0,.15v.15s0,.15,0,.15v.15s0,.15,0,.15h.15s0-.14,0-.14h.15s0,.15,0,.15h.15s0-.14,0-.14v-.15s0-.15,0-.15v-.15s0-.15,0-.15v-.15s.15,0,.15,0Z"/>
    <path class="cls-1" d="m15.2,27.38l-.02.14-.14-.02-.02.14-.02.14-.02.14-.02.14-.02.14-.02.14-.02.14-.02.14.14.02-.02.14-.14-.02-.14-.02-.14-.02-.14-.02-.14-.02-.14-.02-.14-.02.02-.14.02-.14.02-.14.14.02-.02.14.14.02-.02.14.14.02.14.02.02-.14.02-.14.02-.14-.14-.02-.02.14-.14-.02.02-.14.02-.14.02-.14.14.02-.02.14.14.02.02-.14.02-.14.02-.14.02-.14-.14-.02-.14-.02-.02.14-.14-.02-.02.14-.14-.02.02-.14.02-.14.02-.14.14.02.14.02.14.02.14.02.14.02.14.02.14.02Z"/>
    <path class="cls-1" d="m13.94,27.82l-.03.14-.14-.03-.14-.03-.14-.03-.14-.03-.14-.03-.14-.03-.14-.03.03-.14.14.03.14.03.14.03.14.03.14.03.14.03.14.03Z"/>
    <path class="cls-1" d="m12.96,27.01l-.05.14-.14-.05-.05.14-.05.14-.05.14-.05.14-.05.14-.05.14-.05.14-.05.14.14.05-.05.14-.14-.05-.14-.05-.14-.05-.14-.05-.14-.05-.14-.05-.14-.05.05-.14.05-.14.05-.14.14.05-.05.14.14.05-.05.14.14.05.14.05.05-.14.05-.14.05-.14-.14-.05-.05.14-.14-.05.05-.14.05-.14.05-.14.14.05-.05.14.14.05.05-.14.05-.14.05-.14.05-.14-.14-.05-.14-.05-.05.14-.14-.05-.05.14-.14-.05.05-.14.05-.14.05-.14.14.05.14.05.14.05.14.05.14.05.14.05.14.05Z"/>
    <path class="cls-1" d="m11.74,26.59l.13.06-.06.13-.06.13-.06.13-.06.13-.06.13-.06.13-.06.13-.06.13-.06.13-.06.13-.13-.06-.13-.06.06-.13-.13-.06.06-.13-.13-.06.06-.13-.13-.06-.06.13-.06.13-.06.13-.13-.06-.13-.06.06-.13.06-.13.06-.13.06-.13.06-.13.06-.13.06-.13.06-.13.06-.13.06-.13.13.06.13.06-.06.13-.06.13-.06.13-.06.13.13.06-.06.13.13.06-.06.13.13.06.06-.13.06-.13.06-.13.06-.13.06-.13.06-.13.13.06Z"/>
    <path class="cls-1" d="m10.58,26.04l-.07.13-.13-.07-.07.13-.07.13-.07.13-.07.13-.07.13-.07.13-.07.13.13.07.07-.13.13.07-.07.13-.07.13-.07.13-.13-.07-.13-.07-.13-.07-.13-.07-.13-.07-.13-.07.07-.13.07-.13.07-.13.13.07-.07.13.13.07.07-.13.07-.13.07-.13.07-.13.07-.13.07-.13.07-.13-.13-.07.07-.13.13.07.13.07.13.07.13.07Z"/>
    <path class="cls-1" d="m9.84,25.62l-.08.12-.12-.08-.08.12-.08.12-.08.12-.08.12-.08.12-.08.12-.08.12-.08.12.12.08-.08.12-.12-.08-.12-.08-.12-.08-.12-.08-.12-.08-.12-.08.08-.12-.12-.08.08-.12.08-.12.08-.12.12.08.08-.12.08-.12-.12-.08.08-.12.08-.12.08-.12.08-.12.12.08.12.08-.08.12-.08.12-.08.12-.08.12.12.08-.08.12.12.08.08-.12.08-.12.08-.12.08-.12.08-.12.12.08.12.08.12.08Zm-.98.37l-.12-.08-.08.12-.08.12-.08.12.12.08.12.08.08-.12.08-.12.08-.12-.12-.08Z"/>
    <path class="cls-1" d="m8.69,24.77l-.1.11-.11-.1-.1.11-.1.11-.1.11-.1.11.11.1-.1.11.11.1-.1.11-.1.11-.1.11-.1.11-.11-.1-.11-.1.1-.11.1-.11.1-.11.1-.11-.11-.1-.11-.1-.1.11-.1.11-.1.11-.1.11-.11-.1-.11-.1.1-.11.1-.11.1-.11.1-.11.11.1.1-.11.11.1.1-.11.1-.11.1-.11.1-.11-.11-.1.1-.11.11.1.11.1.11.1.11.1Z"/>
    <path class="cls-1" d="m7.09,23.15l.09.12-.12.09.09.12-.12.09-.12.09-.12.09-.12.09-.12.09-.12.09-.12.09-.09-.12-.12.09-.09-.12-.12.09-.09-.12-.09-.12-.09-.12.12-.09.09.12.09.12.12-.09.09.12.12-.09.12-.09-.09-.12-.09-.12-.09-.12-.09-.12.12-.09-.09-.12.12-.09.12-.09.12-.09.12-.09.09.12.12-.09.09.12.09.12.09.12.09.12Zm-.2-.03l-.09-.12-.09-.12-.12.09-.12.09-.12.09-.12.09.09.12.09.12.09.12.12-.09.12-.09.12-.09.12-.09-.09-.12Z"/>
    <path class="cls-1" d="m6.08,22.78l-.12.08-.08-.12-.08-.12-.08-.12-.08-.12-.08-.12-.08-.12-.08-.12.12-.08.08.12.08.12.08.12.08.12.08.12.08.12.08.12Z"/>
    <path class="cls-1" d="m5.84,21.24l-.13.06-.06-.13-.13.06-.13.06-.13.06-.13.06-.13.06-.13.06-.13.06-.13.06.06.13-.13.06-.06-.13-.06-.13-.06-.13-.06-.13.13-.06.06.13.13-.06.13-.06.13-.06.13-.06.13-.06.13-.06.13-.06.13-.06-.06-.13.13-.06.06.13.06.13.06.13.06.13Z"/>
    <path class="cls-1" d="m5.42,20.34l.05.14-.14.05-.14.05-.14.05-.05-.14-.14.05-.05-.14-.14.05-.05-.14-.14.05-.05-.14-.14.05-.05-.14-.14.05-.14.05.05.14.05.14.05.14.14-.05.05.14.14-.05.05.14-.14.05-.14.05-.14.05-.05-.14-.05-.14-.05-.14-.05-.14-.05-.14-.05-.14-.05-.14.14-.05.14-.05.14-.05.05.14.14-.05.05.14.14-.05.05.14.14-.05.05.14.14-.05.05.14.14-.05.14-.05-.05-.14-.05-.14-.05-.14-.14.05-.05-.14-.14.05-.05-.14.14-.05.14-.05.14-.05.05.14.05.14.05.14.05.14.05.14.05.14Z"/>
    <path class="cls-1" d="m5.04,19.27l.04.14-.14.04-.14.04-.14.04-.14.04-.14.04-.14.04-.14.04-.04-.14-.14.04-.04-.14-.14.04-.04-.14-.14.04-.04-.14.14-.04-.04-.14.14-.04-.04-.14.14-.04-.04-.14.14-.04.14-.04.14-.04.14-.04.14-.04.14-.04.14-.04.04.14.04.14-.14.04-.14.04-.14.04-.14.04.04.14.04.14.04.14.14-.04.14-.04.14-.04.14-.04.04.14Zm-.78-.1l-.04-.14-.04-.14-.14.04-.14.04.04.14-.14.04.04.14.14-.04.04.14.14-.04.14-.04-.04-.14Z"/>
    <path class="cls-1" d="m4.79,18.3l-.14.02-.02-.14-.14.02-.14.02-.14.02-.14.02-.14.02-.14.02-.14.02-.14.02.02.14-.14.02-.02-.14-.02-.14-.02-.14.14-.02.14-.02.14-.02.14-.02-.02-.14-.14.02-.02-.14-.14.02-.14.02-.14.02-.02-.14-.02-.14.14-.02.14-.02.14-.02.02.14.14-.02.02.14.14-.02.14-.02-.02-.14.14-.02-.02-.14.14-.02.14-.02.14-.02.02.14.02.14-.14.02-.14.02-.14.02.02.14-.14.02.02.14.14-.02.14-.02.14-.02.14-.02.02.14.02.14.02.14Z"/>
    <path class="cls-1" d="m4.61,17.03v.15s-.14,0-.14,0h-.15s-.15.02-.15.02h-.15s-.15.02-.15.02h-.15s-.15.02-.15.02v-.15s-.15,0-.15,0v-.15s-.15,0-.15,0v-.15s-.15,0-.15,0v-.15s.14,0,.14,0v-.15s.14,0,.14,0v-.15s.14,0,.14,0v-.15s.14,0,.14,0h.15s.15-.02.15-.02h.15s.15-.02.15-.02h.15s.15-.02.15-.02v.15s.02.15.02.15h-.15s-.15.02-.15.02h-.15s-.15.02-.15.02v.15s.02.15.02.15v.15s.15,0,.15,0h.15s.15-.02.15-.02h.15s0,.14,0,.14Zm-.74-.25v-.15s-.02-.15-.02-.15h-.15s-.15.02-.15.02v.15s-.14,0-.14,0v.15s.15,0,.15,0v.15s.15,0,.15,0h.15s0-.15,0-.15Z"/>
    <path class="cls-1" d="m4.57,15.74h-.15s0-.15,0-.15h-.15s-.15-.01-.15-.01h-.15s-.15-.01-.15-.01v.15s-.15,0-.15,0v.15s-.15,0-.15,0h-.15s-.15-.01-.15-.01h-.15s0-.15,0-.15v-.15s.15,0,.15,0h.15s.15.01.15.01h.15s0-.14,0-.14v-.15s-.14,0-.14,0h-.15s-.15-.01-.15-.01h-.15s0-.15,0-.15v-.15s.15,0,.15,0h.15s.15.01.15.01h.15s0,.15,0,.15h.15s0,.15,0,.15h.15s.15.01.15.01h.15s.15.01.15.01v-.15s.15,0,.15,0v.15s-.01.15-.01.15v.15s-.01.15-.01.15Z"/>
    <path class="cls-1" d="m4.63,14.75l-.02.14-.14-.02-.14-.02-.14-.02-.14-.02-.14-.02-.14-.02-.14-.02.02-.14-.14-.02.02-.14-.14-.02.02-.14-.14-.02.02-.14.14.02.02-.14.14.02.02-.14.14.02.02-.14.14.02.14.02.14.02.14.02.14.02.14.02.14.02-.02.14-.02.14-.14-.02-.14-.02-.14-.02-.14-.02-.02.14-.02.14-.02.14.14.02.14.02.14.02.14.02-.02.14Zm-.68-.39l.02-.14.02-.14-.14-.02-.14-.02-.02.14-.14-.02-.02.14.14.02-.02.14.14.02.14.02.02-.14Z"/>
    <path class="cls-1" d="m5.15,12.38l-.14-.05.05-.14-.14-.05-.14-.05-.14-.05-.14-.05-.14-.05-.14-.05-.14-.05-.05.14.14.05-.05.14-.14-.05-.14-.05-.14-.05.05-.14.05-.14.05-.14.05-.14.05-.14.05-.14.14.05.14.05.14.05-.05.14-.14-.05-.05.14.14.05.14.05.14.05.14.05.14.05.14.05.14.05.05-.14.14.05-.05.14-.05.14-.05.14-.05.14Z"/>
    <path class="cls-1" d="m5.57,11.32l-.13-.06.06-.13-.13-.06-.13-.06-.13-.06-.13-.06-.13-.06-.13-.06-.13-.06-.13-.06-.06.13-.13-.06.06-.13.06-.13.06-.13.06-.13.13.06-.06.13.13.06.13.06.13.06.13.06.13.06.13.06.13.06.13.06.06-.13.13.06-.06.13-.06.13-.06.13-.06.13Z"/>
    <path class="cls-1" d="m6.01,10.43l-.08.12-.12-.08-.12-.08-.12-.08-.12-.08-.12-.08-.12-.08-.12-.08-.12-.08-.12-.08-.12-.08.08-.12.08-.12.12.08.08-.12.12.08.08-.12-.12-.08.08-.12-.12-.08.08-.12.08-.12.12.08.12.08.12.08.12.08.12.08.12.08.12.08.12.08.12.08.12.08-.08.12-.08.12-.12-.08-.12-.08-.12-.08-.12-.08-.12-.08-.12-.08-.08.12.12.08-.08.12-.12-.08-.08.12.12.08.12.08.12.08.12.08.12.08.12.08-.08.12Z"/>
    <path class="cls-1" d="m6.53,9.58l-.12-.09.09-.12-.12-.09-.12-.09-.12-.09-.12-.09-.12-.09-.12-.09-.12-.09-.12-.09-.09.12-.12-.09.09-.12.09-.12.09-.12.09-.12.09-.12.09-.12.09-.12.12.09.12.09.12.09-.09.12-.12-.09-.09.12-.12-.09-.09.12-.09.12.12.09.12.09.12.09.09-.12-.12-.09.09-.12.12.09.12.09.12.09-.09.12-.12-.09-.09.12.12.09.12.09.12.09.12.09.09-.12.09-.12-.12-.09.09-.12-.12-.09.09-.12.12.09.12.09.12.09-.09.12-.09.12-.09.12-.09.12-.09.12-.09.12-.09.12Z"/>
    <path class="cls-1" d="m6.79,8.28l-.11-.1.1-.11.1-.11.1-.11.1-.11.1-.11.1-.11.1-.11.11.1-.1.11-.1.11-.1.11-.1.11-.1.11-.1.11-.1.11Z"/>
    <path class="cls-1" d="m7.99,7.83l-.1-.11.11-.1-.1-.11-.1-.11-.1-.11-.1-.11-.1-.11-.1-.11-.1-.11-.1-.11-.11.1-.1-.11.11-.1.11-.1.11-.1.11-.1.11-.1.11-.1.11-.1.1.11.1.11.1.11-.11.1-.1-.11-.11.1-.1-.11-.11.1-.11.1.1.11.1.11.1.11.11-.1-.1-.11.11-.1.1.11.1.11.1.11-.11.1-.1-.11-.11.1.1.11.1.11.1.11.1.11.11-.1.11-.1-.1-.11.11-.1-.1-.11.11-.1.1.11.1.11.1.11-.11.1-.11.1-.11.1-.11.1-.11.1-.11.1-.11.1Z"/>
    <path class="cls-1" d="m8.96,6.99l-.12.09-.09-.12-.09-.12-.09-.12-.09-.12-.09-.12-.09-.12-.09-.12-.09-.12-.09-.12-.09-.12.12-.09.12-.09.09.12.12-.09.09.12.12-.09.09.12.12-.09-.09-.12-.09-.12-.09-.12.12-.09.12-.09.09.12.09.12.09.12.09.12.09.12.09.12.09.12.09.12.09.12.09.12-.12.09-.12.09-.09-.12-.09-.12-.09-.12-.09-.12-.12.09-.09-.12-.12.09-.09-.12-.12.09.09.12.09.12.09.12.09.12.09.12.09.12-.12.09Z"/>
    <path class="cls-1" d="m10.02,6.26l-.07-.13.13-.07-.07-.13-.07-.13-.07-.13-.07-.13-.07-.13-.07-.13-.07-.13-.13.07.07.13-.13.07-.07-.13-.07-.13-.07-.13.13-.07.13-.07.13-.07.13-.07.13-.07.13-.07.07.13.07.13.07.13-.13.07-.07-.13-.13.07.07.13.07.13.07.13.07.13.07.13.07.13.07.13.13-.07.07.13-.13.07-.13.07-.13.07-.13.07Z"/>
    <path class="cls-1" d="m10.75,5.84l-.06-.13.13-.06-.06-.13-.06-.13-.06-.13-.06-.13-.06-.13-.06-.13-.06-.13-.06-.13-.13.06-.06-.13.13-.06.13-.06.13-.06.13-.06.13-.06.13-.06.06.13.13-.06.06.13.06.13.06.13-.13.06.06.13.06.13.13-.06.06.13.06.13.06.13.06.13-.13.06-.13.06-.06-.13-.06-.13-.06-.13-.06-.13-.13.06-.06-.13-.13.06.06.13.06.13.06.13.06.13.06.13-.13.06-.13.06-.13.06Zm.17-1.04l.13-.06-.06-.13-.06-.13-.06-.13-.13.06-.13.06.06.13.06.13.06.13.13-.06Z"/>
    <path class="cls-1" d="m12.07,5.27l-.05-.14.14-.05-.05-.14-.05-.14-.05-.14-.05-.14-.14.05-.05-.14-.14.05-.05-.14-.05-.14-.05-.14-.05-.14.14-.05.14-.05.05.14.05.14.05.14.05.14.14-.05.14-.05-.05-.14-.05-.14-.05-.14-.05-.14.14-.05.14-.05.05.14.05.14.05.14.05.14-.14.05.05.14-.14.05.05.14.05.14.05.14.05.14.14-.05.05.14-.14.05-.14.05-.14.05-.14.05Z"/>
    <path class="cls-1" d="m14.28,4.71l-.14.02-.02-.14-.14.02-.02-.14-.02-.14-.02-.14-.02-.14-.02-.14-.02-.14-.02-.14.14-.02-.02-.14.14-.02-.02-.14.14-.02.14-.02.14-.02.02.14-.14.02-.14.02.02.14-.14.02.02.14.02.14.14-.02.14-.02.14-.02.14-.02.02.14.14-.02.02.14.02.14.02.14.02.14-.14.02.02.14-.14.02-.14.02-.14.02-.14.02Zm.13-.16l.14-.02.14-.02-.02-.14-.02-.14-.02-.14-.02-.14-.14.02-.14.02-.14.02.02.14.02.14.02.14.02.14.14-.02Z"/>
  </g>
</svg>